<mxfile host="app.diagrams.net" modified="2023-12-02T12:56:13.756Z" agent="Mozilla/5.0 (Windows NT 10.0; Win64; x64) AppleWebKit/537.36 (KHTML, like Gecko) Chrome/119.0.0.0 Safari/537.36 Edg/119.0.0.0" etag="Z4KP6YekdoSTZxQlHcFk" version="22.1.5" type="device">
  <diagram name="Page-1" id="rrJAhbEutDOHijjqDd0q">
    <mxGraphModel dx="1386" dy="785" grid="1" gridSize="10" guides="1" tooltips="1" connect="1" arrows="1" fold="1" page="1" pageScale="1" pageWidth="850" pageHeight="1100" math="0" shadow="0">
      <root>
        <mxCell id="0" />
        <mxCell id="1" parent="0" />
        <mxCell id="w66H_knbpRczrMBNbwaX-3" value="PhonePe Files" style="text;html=1;strokeColor=none;fillColor=none;align=center;verticalAlign=middle;whiteSpace=wrap;rounded=0;fontSize=11;" parent="1" vertex="1">
          <mxGeometry x="119" y="216" width="80" height="30" as="geometry" />
        </mxCell>
        <mxCell id="w66H_knbpRczrMBNbwaX-9" value="" style="shape=cylinder3;whiteSpace=wrap;html=1;boundedLbl=1;backgroundOutline=1;size=15;fillColor=#1ba1e2;fontColor=#ffffff;strokeColor=#006EAF;" parent="1" vertex="1">
          <mxGeometry x="605" y="146" width="60" height="80" as="geometry" />
        </mxCell>
        <mxCell id="w66H_knbpRczrMBNbwaX-10" value="&lt;font style=&quot;font-size: 11px;&quot;&gt;SQL Data Warehouse&lt;/font&gt;" style="text;html=1;strokeColor=none;fillColor=none;align=center;verticalAlign=middle;whiteSpace=wrap;rounded=0;fontSize=11;" parent="1" vertex="1">
          <mxGeometry x="596" y="230" width="80" height="30" as="geometry" />
        </mxCell>
        <mxCell id="w66H_knbpRczrMBNbwaX-11" value="" style="endArrow=classic;html=1;rounded=0;exitX=1;exitY=0.5;exitDx=0;exitDy=0;entryX=0;entryY=0.5;entryDx=0;entryDy=0;entryPerimeter=0;" parent="1" edge="1">
          <mxGeometry width="50" height="50" relative="1" as="geometry">
            <mxPoint x="200" y="186" as="sourcePoint" />
            <mxPoint x="370" y="186" as="targetPoint" />
          </mxGeometry>
        </mxCell>
        <mxCell id="w66H_knbpRczrMBNbwaX-12" value="" style="endArrow=classic;html=1;rounded=0;exitX=1;exitY=0.5;exitDx=0;exitDy=0;exitPerimeter=0;entryX=0;entryY=0.5;entryDx=0;entryDy=0;entryPerimeter=0;" parent="1" target="w66H_knbpRczrMBNbwaX-9" edge="1">
          <mxGeometry width="50" height="50" relative="1" as="geometry">
            <mxPoint x="430" y="186" as="sourcePoint" />
            <mxPoint x="450" y="380" as="targetPoint" />
          </mxGeometry>
        </mxCell>
        <mxCell id="w66H_knbpRczrMBNbwaX-13" value="" style="sketch=0;outlineConnect=0;fontColor=#232F3E;gradientColor=none;fillColor=#232F3D;strokeColor=none;dashed=0;verticalLabelPosition=bottom;verticalAlign=top;align=center;html=1;fontSize=12;fontStyle=0;aspect=fixed;pointerEvents=1;shape=mxgraph.aws4.gear;" parent="1" vertex="1">
          <mxGeometry x="270" y="154" width="25" height="25" as="geometry" />
        </mxCell>
        <mxCell id="w66H_knbpRczrMBNbwaX-14" value="" style="sketch=0;outlineConnect=0;fontColor=#232F3E;gradientColor=none;fillColor=#232F3D;strokeColor=none;dashed=0;verticalLabelPosition=bottom;verticalAlign=top;align=center;html=1;fontSize=12;fontStyle=0;aspect=fixed;pointerEvents=1;shape=mxgraph.aws4.gear;" parent="1" vertex="1">
          <mxGeometry x="511" y="155" width="25" height="25" as="geometry" />
        </mxCell>
        <mxCell id="w66H_knbpRczrMBNbwaX-15" value="&lt;font style=&quot;font-size: 11px;&quot;&gt;Python Read data from files&lt;/font&gt;" style="text;html=1;strokeColor=none;fillColor=none;align=center;verticalAlign=middle;whiteSpace=wrap;rounded=0;fontSize=11;" parent="1" vertex="1">
          <mxGeometry x="240" y="193" width="88.5" height="30" as="geometry" />
        </mxCell>
        <mxCell id="w66H_knbpRczrMBNbwaX-16" value="&lt;font style=&quot;font-size: 11px;&quot;&gt;Python&amp;nbsp;&lt;br style=&quot;font-size: 11px;&quot;&gt;Data frameworks Load to Warehouse&lt;/font&gt;" style="text;html=1;strokeColor=none;fillColor=none;align=center;verticalAlign=middle;whiteSpace=wrap;rounded=0;fontSize=11;" parent="1" vertex="1">
          <mxGeometry x="468" y="195" width="112.5" height="30" as="geometry" />
        </mxCell>
        <mxCell id="pQPMNeS8y0MjKF6v_rl3-1" value="" style="image;aspect=fixed;html=1;points=[];align=center;fontSize=12;image=img/lib/azure2/general/Files.svg;" vertex="1" parent="1">
          <mxGeometry x="127" y="151" width="64" height="70" as="geometry" />
        </mxCell>
        <mxCell id="pQPMNeS8y0MjKF6v_rl3-2" value="" style="shape=cylinder3;whiteSpace=wrap;html=1;boundedLbl=1;backgroundOutline=1;size=15;fillColor=#f8cecc;strokeColor=#b85450;" vertex="1" parent="1">
          <mxGeometry x="369" y="146" width="60" height="80" as="geometry" />
        </mxCell>
        <mxCell id="pQPMNeS8y0MjKF6v_rl3-3" value="&lt;font style=&quot;font-size: 11px;&quot;&gt;Stage Dataframe&lt;/font&gt;" style="text;html=1;strokeColor=none;fillColor=none;align=center;verticalAlign=middle;whiteSpace=wrap;rounded=0;fontSize=11;" vertex="1" parent="1">
          <mxGeometry x="360" y="230" width="80" height="30" as="geometry" />
        </mxCell>
      </root>
    </mxGraphModel>
  </diagram>
</mxfile>
